<!DOCTYPE svg PUBLIC "-//W3C//DTD SVG 1.1//EN" "http://www.w3.org/Graphics/SVG/1.1/DTD/svg11.dtd">
<!-- Uploaded to: SVG Repo, www.svgrepo.com, Transformed by: SVG Repo Mixer Tools -->
<svg fill="#ffffff" width="64px" height="64px" viewBox="0 0 32 32" style="fill-rule:evenodd;clip-rule:evenodd;stroke-linejoin:round;stroke-miterlimit:2;" version="1.1" xml:space="preserve" xmlns="http://www.w3.org/2000/svg" xmlns:serif="http://www.serif.com/" xmlns:xlink="http://www.w3.org/1999/xlink">
<g id="SVGRepo_bgCarrier" stroke-width="0"/>
<g id="SVGRepo_tracerCarrier" stroke-linecap="round" stroke-linejoin="round" stroke="#9e9a9a" stroke-width="1.6">
<path d="M9,7.984c-0.8,-0 -1.563,0.316 -2.125,0.878c-0.563,0.563 -0.879,1.326 -0.879,2.122l-0,10.061c-0,0.796 0.316,1.559 0.879,2.122c0.562,0.562 1.325,0.878 2.121,0.878l0.006,0l0,2.943c0,1.656 1.343,3 3,3l8,-0c1.657,-0 3,-1.344 3,-3l0,-2.943c0.793,-0.001 1.554,-0.317 2.115,-0.878c0.563,-0.563 0.879,-1.326 0.879,-2.122l-0,-10.061c-0,-0.796 -0.316,-1.559 -0.879,-2.122c-0.561,-0.561 -1.323,-0.877 -2.117,-0.878l-0,-2.984c-0,-1.657 -1.343,-3 -3,-3l-8,0c-1.657,0 -3,1.343 -3,3l-0,2.984Zm2.002,16.061l0,2.943c0,0.552 0.448,1 1,1c0,-0 8,-0 8,-0c0.552,-0 1,-0.448 1,-1l0,-2.943l-10,0Zm12.994,-13.062l-0,10.062c-0,0.266 -0.105,0.52 -0.293,0.708c-0.188,0.187 -0.442,0.292 -0.707,0.292l-14,0c-0.265,0 -0.52,-0.105 -0.707,-0.292c-0.188,-0.188 -0.293,-0.442 -0.293,-0.707c-0,-0.001 -0,-10.062 -0,-10.062c-0,-0.266 0.105,-0.52 0.293,-0.708c0.187,-0.187 0.442,-0.292 0.707,-0.292l14,-0c0.265,-0 0.519,0.105 0.707,0.292c0.188,0.188 0.293,0.442 0.293,0.707Zm-2.996,-2.999l-0,-2.984c-0,-0.552 -0.448,-1 -1,-1c0,-0 -8,0 -8,0c-0.552,0 -1,0.448 -1,1l-0,2.984l10,-0Z"/>
<path d="M10.996,17.026l3.004,-0c0.336,-0 0.65,-0.169 0.835,-0.449l0.164,-0.25c0,0 0.003,2.68 0.003,2.68c0,0.404 0.244,0.768 0.616,0.923c0.373,0.155 0.803,0.07 1.089,-0.215l2.705,-2.689c0,-0 1.588,-0 1.588,-0c0.552,-0 1,-0.448 1,-1c0,-0.552 -0.448,-1 -1,-1l-2,-0c-0.264,-0 -0.518,0.104 -0.705,0.291l-1.295,1.288c-0,-0.001 -0.004,-3.606 -0.004,-3.606c-0.001,-0.441 -0.29,-0.83 -0.713,-0.957c-0.423,-0.127 -0.879,0.039 -1.122,0.407l-1.699,2.577c-0,-0 -2.466,-0 -2.466,-0c-0.552,-0 -1,0.448 -1,1c-0,0.552 0.448,1 1,1Z"/>
</g>
<g id="SVGRepo_iconCarrier">
<path d="M9,7.984c-0.8,-0 -1.563,0.316 -2.125,0.878c-0.563,0.563 -0.879,1.326 -0.879,2.122l-0,10.061c-0,0.796 0.316,1.559 0.879,2.122c0.562,0.562 1.325,0.878 2.121,0.878l0.006,0l0,2.943c0,1.656 1.343,3 3,3l8,-0c1.657,-0 3,-1.344 3,-3l0,-2.943c0.793,-0.001 1.554,-0.317 2.115,-0.878c0.563,-0.563 0.879,-1.326 0.879,-2.122l-0,-10.061c-0,-0.796 -0.316,-1.559 -0.879,-2.122c-0.561,-0.561 -1.323,-0.877 -2.117,-0.878l-0,-2.984c-0,-1.657 -1.343,-3 -3,-3l-8,0c-1.657,0 -3,1.343 -3,3l-0,2.984Zm2.002,16.061l0,2.943c0,0.552 0.448,1 1,1c0,-0 8,-0 8,-0c0.552,-0 1,-0.448 1,-1l0,-2.943l-10,0Zm12.994,-13.062l-0,10.062c-0,0.266 -0.105,0.52 -0.293,0.708c-0.188,0.187 -0.442,0.292 -0.707,0.292l-14,0c-0.265,0 -0.52,-0.105 -0.707,-0.292c-0.188,-0.188 -0.293,-0.442 -0.293,-0.707c-0,-0.001 -0,-10.062 -0,-10.062c-0,-0.266 0.105,-0.52 0.293,-0.708c0.187,-0.187 0.442,-0.292 0.707,-0.292l14,-0c0.265,-0 0.519,0.105 0.707,0.292c0.188,0.188 0.293,0.442 0.293,0.707Zm-2.996,-2.999l-0,-2.984c-0,-0.552 -0.448,-1 -1,-1c0,-0 -8,0 -8,0c-0.552,0 -1,0.448 -1,1l-0,2.984l10,-0Z"/>
<path d="M10.996,17.026l3.004,-0c0.336,-0 0.65,-0.169 0.835,-0.449l0.164,-0.25c0,0 0.003,2.68 0.003,2.68c0,0.404 0.244,0.768 0.616,0.923c0.373,0.155 0.803,0.07 1.089,-0.215l2.705,-2.689c0,-0 1.588,-0 1.588,-0c0.552,-0 1,-0.448 1,-1c0,-0.552 -0.448,-1 -1,-1l-2,-0c-0.264,-0 -0.518,0.104 -0.705,0.291l-1.295,1.288c-0,-0.001 -0.004,-3.606 -0.004,-3.606c-0.001,-0.441 -0.29,-0.83 -0.713,-0.957c-0.423,-0.127 -0.879,0.039 -1.122,0.407l-1.699,2.577c-0,-0 -2.466,-0 -2.466,-0c-0.552,-0 -1,0.448 -1,1c-0,0.552 0.448,1 1,1Z"/>
</g>
</svg>