<!DOCTYPE svg PUBLIC "-//W3C//DTD SVG 1.1//EN" "http://www.w3.org/Graphics/SVG/1.1/DTD/svg11.dtd">
<!-- Uploaded to: SVG Repo, www.svgrepo.com, Transformed by: SVG Repo Mixer Tools -->
<svg fill="#ffffff" width="800px" height="800px" viewBox="0 0 24 24" xmlns="http://www.w3.org/2000/svg" stroke="#ffffff" stroke-width="0.00024000000000000003">
<g id="SVGRepo_bgCarrier" stroke-width="0"/>
<g id="SVGRepo_tracerCarrier" stroke-linecap="round" stroke-linejoin="round" stroke="#CCCCCC" stroke-width="1.008">
<path d="M14,2H10A3,3,0,0,0,7,5V6H5A3,3,0,0,0,2,9V19a3,3,0,0,0,3,3H19a3,3,0,0,0,3-3V9a3,3,0,0,0-3-3H17V5A3,3,0,0,0,14,2ZM9,5a1,1,0,0,1,1-1h4a1,1,0,0,1,1,1V6H9ZM20,9V19a1,1,0,0,1-1,1H5a1,1,0,0,1-1-1V9A1,1,0,0,1,5,8H19A1,1,0,0,1,20,9Zm-7,4h2v2H13v2H11V15H9V13h2V11h2Z"/>
</g>
<g id="SVGRepo_iconCarrier">
<path d="M14,2H10A3,3,0,0,0,7,5V6H5A3,3,0,0,0,2,9V19a3,3,0,0,0,3,3H19a3,3,0,0,0,3-3V9a3,3,0,0,0-3-3H17V5A3,3,0,0,0,14,2ZM9,5a1,1,0,0,1,1-1h4a1,1,0,0,1,1,1V6H9ZM20,9V19a1,1,0,0,1-1,1H5a1,1,0,0,1-1-1V9A1,1,0,0,1,5,8H19A1,1,0,0,1,20,9Zm-7,4h2v2H13v2H11V15H9V13h2V11h2Z"/>
</g>
</svg>