<!DOCTYPE svg PUBLIC "-//W3C//DTD SVG 1.1//EN" "http://www.w3.org/Graphics/SVG/1.1/DTD/svg11.dtd">
<!-- Uploaded to: SVG Repo, www.svgrepo.com, Transformed by: SVG Repo Mixer Tools -->
<svg width="800px" height="800px" viewBox="0 0 64 64" xmlns="http://www.w3.org/2000/svg" xmlns:xlink="http://www.w3.org/1999/xlink" aria-hidden="true" role="img" class="iconify iconify--medical-icon" preserveAspectRatio="xMidYMid meet" fill="#ffffff">
<g id="SVGRepo_bgCarrier" stroke-width="0"/>
<g id="SVGRepo_tracerCarrier" stroke-linecap="round" stroke-linejoin="round" stroke="#CCCCCC" stroke-width="2.048">
<path d="M7.684 41.188c.146-4.908-2.524-6.756-5.78-7.977c-1.082 4.199 1.904 7.693 5.78 7.977z" fill="#000000"/>
<path d="M8.421 19.273c2.076-4.445.356-7.211-2.16-9.618c-2.641 3.432-1.283 7.82 2.16 9.618z" fill="#000000"/>
<path d="M9.592 31.647c-.143-4.905 2.524-6.761 5.782-7.977c1.078 4.197-1.906 7.69-5.782 7.977z" fill="#000000"/>
<path d="M9.592 39.212c-.143-4.905 2.524-6.756 5.782-7.975c1.078 4.196-1.906 7.69-5.782 7.975z" fill="#000000"/>
<path d="M9.592 24.085c-.143-4.907 2.524-6.763 5.782-7.982c1.078 4.201-1.906 7.693-5.782 7.982z" fill="#000000"/>
<path d="M7.684 33.624c.146-4.905-2.524-6.761-5.78-7.977c-1.082 4.197 1.904 7.691 5.78 7.977z" fill="#000000"/>
<path d="M7.684 26.062c.146-4.908-2.524-6.763-5.78-7.984c-1.082 4.203 1.904 7.692 5.78 7.984z" fill="#000000"/>
<path d="M44.453 63.069H18.142l13.157-22.796l13.154 22.796zM23.369 60.05h15.858l-7.929-13.735l-7.929 13.735z" fill="#000000"/>
<path d="M3.843 47.54l55.741-15.164l-.828-3.063L3.011 44.479z" fill="#000000"/>
<path d="M43.176.634s.408 8.041 7.456 7.359c0 0 .795-6.718-7.456-7.359z" fill="#000000"/>
<path d="M50.555 26.787a4.082 4.082 0 0 1-3.339 1.716c-1.123 0-2.223-.528-2.965-1.268c-1.518-1.656-3.486-5.358-3.486-5.358c-1.103-2.239-1.694-3.971-1.694-5.722c0-3.73 3.019-6.965 6.759-6.965a6.74 6.74 0 0 1 4.726 1.93a6.732 6.732 0 0 1 4.724-1.93c3.739 0 6.758 3.235 6.758 6.965c0 1.751-.592 3.483-1.694 5.722c0 0-1.968 3.701-3.486 5.358c-.742.74-1.842 1.268-2.966 1.268a4.078 4.078 0 0 1-3.338-1.716z" fill="#000000"/>
</g>
<g id="SVGRepo_iconCarrier">
<path d="M7.684 41.188c.146-4.908-2.524-6.756-5.78-7.977c-1.082 4.199 1.904 7.693 5.78 7.977z" fill="#000000"/>
<path d="M8.421 19.273c2.076-4.445.356-7.211-2.16-9.618c-2.641 3.432-1.283 7.82 2.16 9.618z" fill="#000000"/>
<path d="M9.592 31.647c-.143-4.905 2.524-6.761 5.782-7.977c1.078 4.197-1.906 7.69-5.782 7.977z" fill="#000000"/>
<path d="M9.592 39.212c-.143-4.905 2.524-6.756 5.782-7.975c1.078 4.196-1.906 7.69-5.782 7.975z" fill="#000000"/>
<path d="M9.592 24.085c-.143-4.907 2.524-6.763 5.782-7.982c1.078 4.201-1.906 7.693-5.782 7.982z" fill="#000000"/>
<path d="M7.684 33.624c.146-4.905-2.524-6.761-5.78-7.977c-1.082 4.197 1.904 7.691 5.78 7.977z" fill="#000000"/>
<path d="M7.684 26.062c.146-4.908-2.524-6.763-5.78-7.984c-1.082 4.203 1.904 7.692 5.78 7.984z" fill="#000000"/>
<path d="M44.453 63.069H18.142l13.157-22.796l13.154 22.796zM23.369 60.05h15.858l-7.929-13.735l-7.929 13.735z" fill="#000000"/>
<path d="M3.843 47.54l55.741-15.164l-.828-3.063L3.011 44.479z" fill="#000000"/>
<path d="M43.176.634s.408 8.041 7.456 7.359c0 0 .795-6.718-7.456-7.359z" fill="#000000"/>
<path d="M50.555 26.787a4.082 4.082 0 0 1-3.339 1.716c-1.123 0-2.223-.528-2.965-1.268c-1.518-1.656-3.486-5.358-3.486-5.358c-1.103-2.239-1.694-3.971-1.694-5.722c0-3.73 3.019-6.965 6.759-6.965a6.74 6.74 0 0 1 4.726 1.93a6.732 6.732 0 0 1 4.724-1.93c3.739 0 6.758 3.235 6.758 6.965c0 1.751-.592 3.483-1.694 5.722c0 0-1.968 3.701-3.486 5.358c-.742.74-1.842 1.268-2.966 1.268a4.078 4.078 0 0 1-3.338-1.716z" fill="#000000"/>
</g>
</svg>